<svg viewBox="0 0 697 731" version="1.1" xmlns="http://www.w3.org/2000/svg" xmlns:xlink="http://www.w3.org/1999/xlink" width="697" height="731" style="overflow: hidden; display: block; font-family: Inter;"><g><rect x="0" y="0" width="100%" height="100%" shape-rendering="crispEdges" style="fill: white;"></rect></g><g><g transform="translate(32 32) " clip-path="url(#3e335a14-db38-47d9-fc19-3d4191a4b67f)" style="pointer-events: visible;"><text x="0" y="1" font-size="24" text-anchor="middle" transform="translate(316.5 0) " style="white-space: pre;"><tspan x="0" dy="19.200000000000003"><tspan font-size="24">Cattle meat</tspan></tspan></text><clipPath id="3e335a14-db38-47d9-fc19-3d4191a4b67f"><rect width="633" height="41"></rect></clipPath></g><g transform="translate(512.26563 73) "><g style="pointer-events: none;"><text x="0" y="0" font-size="14" fill="#464646" text-anchor="start" font-weight="bold" style="white-space: pre; pointer-events: visible;"><tspan x="0" dy="11.200000000000001"><tspan font-size="14">Strength of link to </tspan></tspan><tspan x="0" dy="18.2"><tspan font-size="14">Amazon deforestation</tspan></tspan></text><g style="pointer-events: visible;"><g transform="translate(10 54.2) "><circle r="6.90988298942671" stroke-width="0" style="fill: rgb(132, 178, 172);"></circle></g><text x="25" y="48.20000076293945" font-size="14" fill="#464646" text-anchor="start" style="white-space: pre;"><tspan x="25" dy="11.200000000000001"><tspan font-size="14">High</tspan></tspan></text></g><g style="pointer-events: visible;"><g transform="translate(10 75.2) "><circle r="6.90988298942671" stroke-width="0" style="fill: rgb(244, 202, 184);"></circle></g><text x="25" y="69.20000076293945" font-size="14" fill="#464646" text-anchor="start" style="white-space: pre;"><tspan x="25" dy="11.200000000000001"><tspan font-size="14">Medium</tspan></tspan></text></g><g style="pointer-events: visible;"><g transform="translate(10 96.2) "><circle r="6.90988298942671" stroke-width="0" style="fill: rgb(214, 213, 213);"></circle></g><text x="25" y="90.20000076293945" font-size="14" fill="#464646" text-anchor="start" style="white-space: pre;"><tspan x="25" dy="11.200000000000001"><tspan font-size="14">Low</tspan></tspan></text></g></g></g><g class=" graphica-axis-y" transform="translate(149.56641 73) " style="pointer-events: none;"><g transform="translate(0 28) "><text x="0" y="0" font-size="14" fill="rgb(70,70,70)" text-anchor="end" dominant-baseline="central" transform="translate(-8 70.04882) " style="white-space: pre; pointer-events: visible;"><tspan x="0" dominant-baseline="central"><tspan font-size="14" dominant-baseline="central">USA</tspan></tspan></text><text x="0" y="0" font-size="14" fill="rgb(70,70,70)" text-anchor="end" dominant-baseline="central" transform="translate(-8 201.66282) " style="white-space: pre; pointer-events: visible;"><tspan x="0" dominant-baseline="central"><tspan font-size="14" dominant-baseline="central">Brazil</tspan></tspan></text><text x="0" y="0" font-size="14" fill="rgb(70,70,70)" text-anchor="end" dominant-baseline="central" transform="translate(-8 317.94353) " style="white-space: pre; pointer-events: visible;"><tspan x="0" dominant-baseline="central"><tspan font-size="14" dominant-baseline="central">EU27</tspan></tspan></text><text x="0" y="0" font-size="14" fill="rgb(70,70,70)" text-anchor="end" dominant-baseline="central" transform="translate(-8 397.64653) " style="white-space: pre; pointer-events: visible;"><tspan x="0" dominant-baseline="central"><tspan font-size="14" dominant-baseline="central">UK</tspan></tspan></text><text x="0" y="0" font-size="14" fill="rgb(70,70,70)" text-anchor="end" dominant-baseline="central" transform="translate(-8 444.6062) " style="white-space: pre; pointer-events: visible;"><tspan x="0" dominant-baseline="central"><tspan font-size="14" dominant-baseline="central">Canada</tspan></tspan></text><text x="0" y="0" font-size="14" fill="rgb(70,70,70)" text-anchor="end" dominant-baseline="central" transform="translate(-8 477.9501) " style="white-space: pre; pointer-events: visible;"><tspan x="0" dominant-baseline="central"><tspan font-size="14" dominant-baseline="central">Switzerland</tspan></tspan></text><text x="0" y="0" font-size="14" fill="rgb(70,70,70)" text-anchor="end" dominant-baseline="central" transform="translate(-8 500.26547) " style="white-space: pre; pointer-events: visible;"><tspan x="0" dominant-baseline="central"><tspan font-size="14" dominant-baseline="central">Japan</tspan></tspan></text><text x="0" y="0" font-size="14" fill="rgb(70,70,70)" text-anchor="end" dominant-baseline="central" transform="translate(-8 520.22299) " style="white-space: pre; pointer-events: visible;"><tspan x="0" dominant-baseline="central"><tspan font-size="14" dominant-baseline="central">China</tspan></tspan></text><text x="0" y="0" font-size="14" fill="rgb(70,70,70)" text-anchor="end" dominant-baseline="central" transform="translate(-8 537.63656) " style="white-space: pre; pointer-events: visible;"><tspan x="0" dominant-baseline="central"><tspan font-size="14" dominant-baseline="central">Taiwan</tspan></tspan></text><text x="0" y="0" font-size="14" fill="rgb(70,70,70)" text-anchor="end" dominant-baseline="central" transform="translate(-8 555.07885) " style="white-space: pre; pointer-events: visible;"><tspan x="0" dominant-baseline="central"><tspan font-size="14" dominant-baseline="central">Other countries</tspan></tspan></text><text x="0" y="0" font-size="14" fill="rgb(70,70,70)" text-anchor="end" dominant-baseline="central" transform="translate(-8 581.0607) " style="white-space: pre; pointer-events: visible;"><tspan x="0" dominant-baseline="central"><tspan font-size="14" dominant-baseline="central">Unknown</tspan></tspan></text></g><line shape-rendering="crispEdges" x1="0" y1="36" x2="-5" y2="36" stroke="rgb(220,220,220)"></line><line shape-rendering="crispEdges" x1="0" y1="160.09764080306957" x2="-5" y2="160.09764080306957" stroke="rgb(220,220,220)"></line><line shape-rendering="crispEdges" x1="0" y1="36" x2="0" y2="160.09764080306957" stroke="rgb(220,220,220)"></line><line shape-rendering="crispEdges" x1="0" y1="176.09764080306957" x2="-5" y2="176.09764080306957" stroke="rgb(220,220,220)"></line><line shape-rendering="crispEdges" x1="0" y1="283.2279972945238" x2="-5" y2="283.2279972945238" stroke="rgb(220,220,220)"></line><line shape-rendering="crispEdges" x1="0" y1="176.09764080306957" x2="0" y2="283.2279972945238" stroke="rgb(220,220,220)"></line><line shape-rendering="crispEdges" x1="0" y1="299.2279972945238" x2="-5" y2="299.2279972945238" stroke="rgb(220,220,220)"></line><line shape-rendering="crispEdges" x1="0" y1="392.6590707810031" x2="-5" y2="392.6590707810031" stroke="rgb(220,220,220)"></line><line shape-rendering="crispEdges" x1="0" y1="299.2279972945238" x2="0" y2="392.6590707810031" stroke="rgb(220,220,220)"></line><line shape-rendering="crispEdges" x1="0" y1="408.6590707810031" x2="-5" y2="408.6590707810031" stroke="rgb(220,220,220)"></line><line shape-rendering="crispEdges" x1="0" y1="442.6339871950718" x2="-5" y2="442.6339871950718" stroke="rgb(220,220,220)"></line><line shape-rendering="crispEdges" x1="0" y1="408.6590707810031" x2="0" y2="442.6339871950718" stroke="rgb(220,220,220)"></line><line shape-rendering="crispEdges" x1="0" y1="458.6339871950718" x2="-5" y2="458.6339871950718" stroke="rgb(220,220,220)"></line><line shape-rendering="crispEdges" x1="0" y1="486.57841167034235" x2="-5" y2="486.57841167034235" stroke="rgb(220,220,220)"></line><line shape-rendering="crispEdges" x1="0" y1="458.6339871950718" x2="0" y2="486.57841167034235" stroke="rgb(220,220,220)"></line><line shape-rendering="crispEdges" x1="0" y1="502.57841167034235" x2="-5" y2="502.57841167034235" stroke="rgb(220,220,220)"></line><line shape-rendering="crispEdges" x1="0" y1="509.32178863041077" x2="-5" y2="509.32178863041077" stroke="rgb(220,220,220)"></line><line shape-rendering="crispEdges" x1="0" y1="502.57841167034235" x2="0" y2="509.32178863041077" stroke="rgb(220,220,220)"></line><line shape-rendering="crispEdges" x1="0" y1="525.3217886304108" x2="-5" y2="525.3217886304108" stroke="rgb(220,220,220)"></line><line shape-rendering="crispEdges" x1="0" y1="531.2091491860812" x2="-5" y2="531.2091491860812" stroke="rgb(220,220,220)"></line><line shape-rendering="crispEdges" x1="0" y1="525.3217886304108" x2="0" y2="531.2091491860812" stroke="rgb(220,220,220)"></line><line shape-rendering="crispEdges" x1="0" y1="547.2091491860812" x2="-5" y2="547.2091491860812" stroke="rgb(220,220,220)"></line><line shape-rendering="crispEdges" x1="0" y1="549.236830658547" x2="-5" y2="549.236830658547" stroke="rgb(220,220,220)"></line><line shape-rendering="crispEdges" x1="0" y1="547.2091491860812" x2="0" y2="549.236830658547" stroke="rgb(220,220,220)"></line><line shape-rendering="crispEdges" x1="0" y1="565.236830658547" x2="-5" y2="565.236830658547" stroke="rgb(220,220,220)"></line><line shape-rendering="crispEdges" x1="0" y1="566.036291274409" x2="-5" y2="566.036291274409" stroke="rgb(220,220,220)"></line><line shape-rendering="crispEdges" x1="0" y1="565.236830658547" x2="0" y2="566.036291274409" stroke="rgb(220,220,220)"></line><line shape-rendering="crispEdges" x1="0" y1="582.036291274409" x2="-5" y2="582.036291274409" stroke="rgb(220,220,220)"></line><line shape-rendering="crispEdges" x1="0" y1="584.1214066955457" x2="-5" y2="584.1214066955457" stroke="rgb(220,220,220)"></line><line shape-rendering="crispEdges" x1="0" y1="582.036291274409" x2="0" y2="584.1214066955457" stroke="rgb(220,220,220)"></line><line shape-rendering="crispEdges" x1="0" y1="600.1214066955457" x2="-5" y2="600.1214066955457" stroke="rgb(220,220,220)"></line><line shape-rendering="crispEdges" x1="0" y1="617.9999999999998" x2="-5" y2="617.9999999999998" stroke="rgb(220,220,220)"></line><line shape-rendering="crispEdges" x1="0" y1="600.1214066955457" x2="0" y2="617.9999999999998" stroke="rgb(220,220,220)"></line><text x="0" y="0" font-size="14" fill="rgb(70,70,70)" text-anchor="middle" font-weight="bold" style="white-space: pre; pointer-events: visible;"><tspan x="0" dy="11.200000000000001"><tspan font-size="14">Financial institution </tspan></tspan><tspan x="0" dy="18.2"><tspan font-size="14">    headquarters</tspan></tspan></text></g><g class=" graphica-axis-y" transform="translate(384.69922 73) " style="pointer-events: none;"><g transform="translate(0 28) "><text x="0" y="0" font-size="14" fill="rgb(70,70,70)" text-anchor="start" dominant-baseline="central" transform="translate(8 247.9111) " style="white-space: pre; pointer-events: visible;"><tspan x="0" dominant-baseline="central"><tspan font-size="14" dominant-baseline="central">Brazil</tspan></tspan></text><text x="0" y="0" font-size="14" fill="rgb(70,70,70)" text-anchor="start" dominant-baseline="central" transform="translate(8 546.9111) " style="white-space: pre; pointer-events: visible;"><tspan x="0" dominant-baseline="central"><tspan font-size="14" dominant-baseline="central">Colombia</tspan></tspan></text></g><line shape-rendering="crispEdges" x1="0" y1="72" x2="5" y2="72" stroke="rgb(220,220,220)"></line><line shape-rendering="crispEdges" x1="0" y1="479.8222094110421" x2="5" y2="479.8222094110421" stroke="rgb(220,220,220)"></line><line shape-rendering="crispEdges" x1="0" y1="72" x2="0" y2="479.8222094110421" stroke="rgb(220,220,220)"></line><line shape-rendering="crispEdges" x1="0" y1="567.8222094110421" x2="5" y2="567.8222094110421" stroke="rgb(220,220,220)"></line><line shape-rendering="crispEdges" x1="0" y1="582" x2="5" y2="582" stroke="rgb(220,220,220)"></line><line shape-rendering="crispEdges" x1="0" y1="567.8222094110421" x2="0" y2="582" stroke="rgb(220,220,220)"></line><text x="0" y="0" font-size="14" fill="rgb(70,70,70)" text-anchor="middle" font-weight="bold" style="white-space: pre; pointer-events: visible;"><tspan x="0" dy="11.200000000000001"><tspan font-size="14">Producer </tspan></tspan><tspan x="0" dy="18.2"><tspan font-size="14"> country</tspan></tspan></text></g></g><g><g></g><g></g><g><g data-center-x="267.132815" data-center-y="438.82029400573606" data-classify="element"><path d="M 149.56641 324.81837860043015 C 267.132815 324.81837860043015 267.132815 521.4125907169483 384.69922 521.4125907169483 L 384.69922 552.8222094110421 C 267.132815 552.8222094110421 267.132815 356.2279972945238 149.56641 356.2279972945238  z" style="fill: rgb(214, 213, 213); fill-opacity: 0.7;"></path></g><g data-center-x="267.132815" data-center-y="571.370065844808" data-classify="element"><path d="M 149.56641 621.3275409726675 C 267.132815 621.3275409726675 267.132815 520.503301031069 384.69922 520.503301031069 L 384.69922 521.4125907169484 C 267.132815 521.4125907169484 267.132815 622.236830658547 149.56641 622.236830658547  z" style="fill: rgb(214, 213, 213); fill-opacity: 0.7;"></path></g><g data-center-x="267.132815" data-center-y="485.2916249617665" data-classify="element"><path d="M 149.56641 450.0799488924642 C 267.132815 450.0799488924642 267.132815 504.9241791425299 384.69922 504.9241791425299 L 384.69922 520.5033010310689 C 267.132815 520.5033010310689 267.132815 465.6590707810031 149.56641 465.6590707810031  z" style="fill: rgb(214, 213, 213); fill-opacity: 0.7;"></path></g><g data-center-x="267.132815" data-center-y="553.8968203688231" data-classify="element"><path d="M 149.56641 602.8694615951163 C 267.132815 602.8694615951163 267.132815 503.58449155156495 384.69922 503.58449155156495 L 384.69922 504.92417914252997 C 267.132815 504.92417914252997 267.132815 604.2091491860813 149.56641 604.2091491860813  z" style="fill: rgb(214, 213, 213); fill-opacity: 0.7;"></path></g><g data-center-x="267.132815" data-center-y="542.4478417896769" data-classify="element"><path d="M 149.56641 581.3111920277887 C 267.132815 581.3111920277887 267.132815 502.57389494894323 384.69922 502.57389494894323 L 384.69922 503.58449155156507 C 267.132815 503.58449155156507 267.132815 582.3217886304107 149.56641 582.3217886304107  z" style="fill: rgb(214, 213, 213); fill-opacity: 0.7;"></path></g><g data-center-x="267.132815" data-center-y="504.74032731019406" data-classify="element"><path d="M 149.56641 506.906759671445 C 267.132815 506.906759671445 267.132815 493.8466674253164 384.69922 493.8466674253164 L 384.69922 502.5738949489432 C 267.132815 502.5738949489432 267.132815 515.6339871950718 149.56641 515.6339871950718  z" style="fill: rgb(214, 213, 213); fill-opacity: 0.7;"></path></g><g data-center-x="267.132815" data-center-y="358.3952801483882" data-classify="element"><path d="M 149.56641 222.94389287146004 C 267.132815 222.94389287146004 267.132815 483.6929194937069 384.69922 483.6929194937069 L 384.69922 493.84666742531635 C 267.132815 493.84666742531635 267.132815 233.09764080306957 149.56641 233.09764080306957  z" style="fill: rgb(214, 213, 213); fill-opacity: 0.7;"></path></g><g data-center-x="267.132815" data-center-y="587.1712724134618" data-classify="element"><path d="M 149.56641 690.6496253332166 C 267.132815 690.6496253332166 267.132815 483.3425448269237 384.69922 483.3425448269237 L 384.69922 483.6929194937069 C 267.132815 483.6929194937069 267.132815 690.9999999999998 149.56641 690.9999999999998  z" style="fill: rgb(214, 213, 213); fill-opacity: 0.7;"></path></g><g data-center-x="267.132815" data-center-y="488.74591483947245" data-classify="element"><path d="M 149.56641 322.491829678945 C 267.132815 322.491829678945 267.132815 652.6734510785146 384.69922 652.6734510785146 L 384.69922 654.9999999999999 C 267.132815 654.9999999999999 267.132815 324.81837860043015 149.56641 324.81837860043015  z" style="fill: rgb(244, 202, 184); fill-opacity: 0.7;"></path></g><g data-center-x="267.132815" data-center-y="550.9606962654965" data-classify="element"><path d="M 149.56641 449.2479414524783 C 267.132815 449.2479414524783 267.132815 651.8414436385287 384.69922 651.8414436385287 L 384.69922 652.6734510785147 C 267.132815 652.6734510785147 267.132815 450.0799488924642 149.56641 450.0799488924642  z" style="fill: rgb(244, 202, 184); fill-opacity: 0.7;"></path></g><g data-center-x="267.132815" data-center-y="616.3995268803343" data-classify="element"><path d="M 149.56641 580.9576101221398 C 267.132815 580.9576101221398 267.132815 651.4878617328798 384.69922 651.4878617328798 L 384.69922 651.8414436385287 C 267.132815 651.8414436385287 267.132815 581.3111920277888 149.56641 581.3111920277888  z" style="fill: rgb(244, 202, 184); fill-opacity: 0.7;"></path></g><g data-center-x="267.132815" data-center-y="578.7344836576794" data-classify="element"><path d="M 149.56641 505.9811055824791 C 267.132815 505.9811055824791 267.132815 650.5622076439139 384.69922 650.5622076439139 L 384.69922 651.4878617328799 C 267.132815 651.4878617328799 267.132815 506.90675967144495 149.56641 506.90675967144495  z" style="fill: rgb(244, 202, 184); fill-opacity: 0.7;"></path></g><g data-center-x="267.132815" data-center-y="432.2724274470369" data-classify="element"><path d="M 149.56641 213.98264725015963 C 267.132815 213.98264725015963 267.132815 641.6009620226137 384.69922 641.6009620226137 L 384.69922 650.562207643914 C 267.132815 650.562207643914 267.132815 222.94389287146004 149.56641 222.94389287146004  z" style="fill: rgb(244, 202, 184); fill-opacity: 0.7;"></path></g><g data-center-x="267.132815" data-center-y="666.0942235176615" data-classify="element"><path d="M 149.56641 690.5874850127093 C 267.132815 690.5874850127093 267.132815 641.5388217021062 384.69922 641.5388217021062 L 384.69922 641.6009620226135 C 267.132815 641.6009620226135 267.132815 690.6496253332166 149.56641 690.6496253332166  z" style="fill: rgb(244, 202, 184); fill-opacity: 0.7;"></path></g><g data-center-x="267.132815" data-center-y="393.6000869962854" data-classify="element"><path d="M 149.56641 303.85762916564715 C 267.132815 303.85762916564715 267.132815 464.7083443136258 384.69922 464.7083443136258 L 384.69922 483.34254482692364 C 267.132815 483.34254482692364 267.132815 322.491829678945 149.56641 322.491829678945  z" style="fill: rgb(244, 202, 184); fill-opacity: 0.7;"></path></g><g data-center-x="267.132815" data-center-y="498.57768181486347" data-classify="element"><path d="M 149.56641 532.4470193161011 C 267.132815 532.4470193161011 267.132815 437.57695195938476 384.69922 437.57695195938476 L 384.69922 464.7083443136258 C 267.132815 464.7083443136258 267.132815 559.5784116703422 149.56641 559.5784116703422  z" style="fill: rgb(244, 202, 184); fill-opacity: 0.7;"></path></g><g data-center-x="267.132815" data-center-y="529.2242113981403" data-classify="element"><path d="M 149.56641 620.8714708368958 C 267.132815 620.8714708368958 267.132815 437.1208818236132 384.69922 437.1208818236132 L 384.69922 437.5769519593847 C 267.132815 437.5769519593847 267.132815 621.3275409726674 149.56641 621.3275409726674  z" style="fill: rgb(244, 202, 184); fill-opacity: 0.7;"></path></g><g data-center-x="267.132815" data-center-y="417.8590318775574" data-classify="element"><path d="M 149.56641 398.5971819315016 C 267.132815 398.5971819315016 267.132815 386.4701223026366 384.69922 386.4701223026366 L 384.69922 437.1208818236132 C 267.132815 437.1208818236132 267.132815 449.24794145247824 149.56641 449.24794145247824  z" style="fill: rgb(244, 202, 184); fill-opacity: 0.7;"></path></g><g data-center-x="267.132815" data-center-y="494.0855351692152" data-classify="element"><path d="M 149.56641 601.7009480357938 C 267.132815 601.7009480357938 267.132815 385.30160874331403 384.69922 385.30160874331403 L 384.69922 386.47012230263664 C 267.132815 386.47012230263664 267.132815 602.8694615951163 149.56641 602.8694615951163  z" style="fill: rgb(244, 202, 184); fill-opacity: 0.7;"></path></g><g data-center-x="267.132815" data-center-y="520.9619314265913" data-classify="element"><path d="M 149.56641 656.6222541098683 C 267.132815 656.6222541098683 267.132815 384.8024561576368 384.69922 384.8024561576368 L 384.69922 385.3016087433141 C 267.132815 385.3016087433141 267.132815 657.1214066955457 149.56641 657.1214066955457  z" style="fill: rgb(244, 202, 184); fill-opacity: 0.7;"></path></g><g data-center-x="267.132815" data-center-y="480.6977325389922" data-classify="element"><path d="M 149.56641 576.5930089203478 C 267.132815 576.5930089203478 267.132815 380.4378549558446 384.69922 380.4378549558446 L 384.69922 384.8024561576368 C 267.132815 384.8024561576368 267.132815 580.9576101221398 149.56641 580.9576101221398  z" style="fill: rgb(244, 202, 184); fill-opacity: 0.7;"></path></g><g data-center-x="267.132815" data-center-y="433.9838806930138" data-classify="element"><path d="M 149.56641 487.5299064301831 C 267.132815 487.5299064301831 267.132815 361.9866558035486 384.69922 361.9866558035486 L 384.69922 380.4378549558446 C 267.132815 380.4378549558446 267.132815 505.9811055824791 149.56641 505.9811055824791  z" style="fill: rgb(244, 202, 184); fill-opacity: 0.7;"></path></g><g data-center-x="267.132815" data-center-y="245.92611513985725" data-classify="element"><path d="M 149.56641 129.86557447616588 C 267.132815 129.86557447616588 267.132815 277.86958302955486 384.69922 277.86958302955486 L 384.69922 361.9866558035486 C 267.132815 361.9866558035486 267.132815 213.98264725015963 149.56641 213.98264725015963  z" style="fill: rgb(244, 202, 184); fill-opacity: 0.7;"></path></g><g data-center-x="267.132815" data-center-y="479.5952565896434" data-classify="element"><path d="M 149.56641 681.3209301497319 C 267.132815 681.3209301497319 267.132815 268.60302816657736 384.69922 268.60302816657736 L 384.69922 277.86958302955486 C 267.132815 277.86958302955486 267.132815 690.5874850127094 149.56641 690.5874850127094  z" style="fill: rgb(244, 202, 184); fill-opacity: 0.7;"></path></g><g data-center-x="267.132815" data-center-y="472.6777598780491" data-classify="element"><path d="M 149.56641 303.81669805399173 C 267.132815 303.81669805399173 267.132815 641.4978905904511 384.69922 641.4978905904511 L 384.69922 641.5388217021064 C 267.132815 641.5388217021064 267.132815 303.8576291656471 149.56641 303.8576291656471  z" style="fill: rgb(132, 178, 172); fill-opacity: 0.7;"></path></g><g data-center-x="267.132815" data-center-y="564.4290647309267" data-classify="element"><path d="M 149.56641 487.36023887140243 C 267.132815 487.36023887140243 267.132815 641.3282230316703 384.69922 641.3282230316703 L 384.69922 641.497890590451 C 267.132815 641.497890590451 267.132815 487.529906430183 149.56641 487.529906430183  z" style="fill: rgb(132, 178, 172); fill-opacity: 0.7;"></path></g><g data-center-x="267.132815" data-center-y="661.0715697803869" data-classify="element"><path d="M 149.56641 680.8149165291035 C 267.132815 680.8149165291035 267.132815 640.822209411042 384.69922 640.822209411042 L 384.69922 641.3282230316704 C 267.132815 641.3282230316704 267.132815 681.3209301497319 149.56641 681.3209301497319  z" style="fill: rgb(132, 178, 172); fill-opacity: 0.7;"></path></g><g data-center-x="267.132815" data-center-y="258.8503344848234" data-classify="element"><path d="M 149.56641 249.0976408030695 C 267.132815 249.0976408030695 267.132815 213.88397091565514 384.69922 213.88397091565514 L 384.69922 268.60302816657736 C 267.132815 268.60302816657736 267.132815 303.81669805399173 149.56641 303.81669805399173  z" style="fill: rgb(132, 178, 172); fill-opacity: 0.7;"></path></g><g data-center-x="267.132815" data-center-y="372.75897905536345" data-classify="element"><path d="M 149.56641 531.6339871950718 C 267.132815 531.6339871950718 267.132815 213.0709387946257 384.69922 213.0709387946257 L 384.69922 213.88397091565514 C 267.132815 213.88397091565514 267.132815 532.4470193161012 149.56641 532.4470193161012  z" style="fill: rgb(132, 178, 172); fill-opacity: 0.7;"></path></g><g data-center-x="267.132815" data-center-y="416.64004399035343" data-classify="element"><path d="M 149.56641 620.209149186081 C 267.132815 620.209149186081 267.132815 212.40861714381094 384.69922 212.40861714381094 L 384.69922 213.0709387946257 C 267.132815 213.0709387946257 267.132815 620.8714708368959 149.56641 620.8714708368959  z" style="fill: rgb(132, 178, 172); fill-opacity: 0.7;"></path></g><g data-center-x="267.132815" data-center-y="292.31830721916737" data-classify="element"><path d="M 149.56641 372.2279972945238 C 267.132815 372.2279972945238 267.132815 186.03943250683307 384.69922 186.03943250683307 L 384.69922 212.40861714381094 C 267.132815 212.40861714381094 267.132815 398.5971819315016 149.56641 398.5971819315016  z" style="fill: rgb(132, 178, 172); fill-opacity: 0.7;"></path></g><g data-center-x="267.132815" data-center-y="392.18061056862194" data-classify="element"><path d="M 149.56641 598.3217886304108 C 267.132815 598.3217886304108 267.132815 182.66027310145012 384.69922 182.66027310145012 L 384.69922 186.03943250683307 C 267.132815 186.03943250683307 267.132815 601.7009480357938 149.56641 601.7009480357938  z" style="fill: rgb(132, 178, 172); fill-opacity: 0.7;"></path></g><g data-center-x="267.132815" data-center-y="418.84828218792956" data-classify="element"><path d="M 149.56641 655.036291274409 C 267.132815 655.036291274409 267.132815 181.07431026599068 384.69922 181.07431026599068 L 384.69922 182.66027310145012 C 267.132815 182.66027310145012 267.132815 656.6222541098684 149.56641 656.6222541098684  z" style="fill: rgb(132, 178, 172); fill-opacity: 0.7;"></path></g><g data-center-x="267.132815" data-center-y="378.3263609681665" data-classify="element"><path d="M 149.56641 575.5784116703423 C 267.132815 575.5784116703423 267.132815 180.05971301598527 384.69922 180.05971301598527 L 384.69922 181.07431026599068 C 267.132815 181.07431026599068 267.132815 576.5930089203478 149.56641 576.5930089203478  z" style="fill: rgb(132, 178, 172); fill-opacity: 0.7;"></path></g><g data-center-x="267.132815" data-center-y="409.1482718372661" data-classify="element"><path d="M 149.56641 638.236830658547 C 267.132815 638.236830658547 267.132815 179.26025240012325 384.69922 179.26025240012325 L 384.69922 180.05971301598527 C 267.132815 180.05971301598527 267.132815 639.036291274409 149.56641 639.036291274409  z" style="fill: rgb(132, 178, 172); fill-opacity: 0.7;"></path></g><g data-center-x="267.132815" data-center-y="330.45966159056314" data-classify="element"><path d="M 149.56641 481.65907078100304 C 267.132815 481.65907078100304 267.132815 173.55908430972386 384.69922 173.55908430972386 L 384.69922 179.26025240012325 C 267.132815 179.26025240012325 267.132815 487.36023887140243 149.56641 487.36023887140243  z" style="fill: rgb(132, 178, 172); fill-opacity: 0.7;"></path></g><g data-center-x="267.132815" data-center-y="141.27954215486193" data-classify="element"><path d="M 149.56641 108.99999999999997 C 267.132815 108.99999999999997 267.132815 152.69350983355793 384.69922 152.69350983355793 L 384.69922 173.55908430972386 C 267.132815 173.55908430972386 267.132815 129.8655744761659 149.56641 129.8655744761659  z" style="fill: rgb(132, 178, 172); fill-opacity: 0.7;"></path></g><g data-center-x="267.132815" data-center-y="412.90745826455185" data-classify="element"><path d="M 149.56641 673.1214066955458 C 267.132815 673.1214066955458 267.132815 145.0000000000001 384.69922 145.0000000000001 L 384.69922 152.69350983355793 C 267.132815 152.69350983355793 267.132815 680.8149165291036 149.56641 680.8149165291036  z" style="fill: rgb(132, 178, 172); fill-opacity: 0.7;"></path></g></g><g></g></g></svg>